<svg xmlns="http://www.w3.org/2000/svg" viewBox="0 0 1095.56 393.93"><defs><style>.cls-1{fill:#fff;}</style></defs><g id="Layer_2" data-name="Layer 2"><g id="Layer_1-2" data-name="Layer 1"><path class="cls-1" d="M205.17,100A113.64,113.64,0,0,0,164,131.89c-18.36,22.62-35.8,46-53,69.53-16.24,22.21-31.35,45.34-52,63.84A101,101,0,0,1,34.22,282c-17.36,7.94-32.77-1.65-34-20.71a76.32,76.32,0,0,1,2-24.17c11.15-42.16,24.34-83.69,47.59-121A101.84,101.84,0,0,1,73,90.18c15-11.7,38-2.23,42.75,16.3,2,8-1.58,14.49-5.65,20.8-10.52,16.25-21.55,32.19-31.52,48.77-7.34,12.21-13.33,25.23-19.92,37.89l1.68,1.1c3.07-3.94,6.11-7.92,9.22-11.83,28.76-36.06,56.67-72.86,86.68-107.84,13.37-15.58,30.42-28.25,46.92-40.76,7.51-5.7,17.45-9.1,26.81-11.26,19.74-4.54,37.49,9.89,38.46,30.19.7,14.46-3.49,28-9.39,40.9-8.37,18.25-17.91,35.95-26.35,54.17a112.72,112.72,0,0,0-8.17,24.33c-1.95,9.33,2.89,13.27,12,10.54a54.72,54.72,0,0,0,13.74-6q33.45-21.56,66.55-43.67c13.94-9.31,24.35-21.93,29.56-37.79,14.52-44.28,46.83-73.55,82.83-99.76C440,8.34,451.92,2.09,465.56.31c15.89-2.06,27,6.09,32,23.22,4.68,15.9.06,28.27-14.18,34.78-10.83,4.95-22.62,7.87-33.35,13-38.14,18.27-65.27,46.23-74.46,88.78-2.46,11.38-.8,22.77,4.16,34.17,4-2.48,7.54-4.87,11.25-6.93,70.21-39,144.11-68.53,222.78-85.42,9.49-2,19.45-2.38,29.2-2.54,7.65-.13,15.8.61,19.3,9.34,2.74,6.84-1.44,20.45-8.56,25.08-5.88,3.83-12.64,7.14-19.45,8.56-18.24,3.79-36.68,6.63-55.1,9.51-55.84,8.72-107.71,27.72-154.81,59.26-5.76,3.85-11.71,7.43-17.71,10.9-8,4.63-10.82,11-9.35,20.39a231.53,231.53,0,0,1,3,35c0,23.55-8.37,44.55-22.56,63.06-20.15,26.29-44.33,47.27-78.41,52.47a91.09,91.09,0,0,1-30.55-.54c-26.89-5.21-39.56-25.57-34.05-52.62,6-29.25,22.81-52,44.67-71,15.64-13.57,32.6-25.7,49.53-37.67,15.76-11.15,16.42-11.63,10.21-29.66L331,178c-2.25,1.74-4.26,3.14-6.1,4.72-23.81,20.37-47,41.72-74.58,56.89-13,7.17-27.18,13.51-41.6,16.71C178.89,263,157.15,244,159.86,213.61c1.38-15.43,5.85-31.11,11.78-45.49,8.65-20.93,19.87-40.8,30-61.12C202.8,104.68,204,102.36,205.17,100ZM351.25,258.45c-8.62,6.52-16.9,12.47-24.83,18.85-16.21,13.06-32.37,26.32-43.69,44.09a44.39,44.39,0,0,0-6.84,19.1c-.84,9.63,7.15,14.27,15.89,10.06a47.2,47.2,0,0,0,11.3-7.48c19.63-17.91,34.88-39.2,47.06-62.71C353.51,273.85,354.22,266.75,351.25,258.45Z"/><path class="cls-1" d="M713.26,114c-.07,14.6-12.56,28.67-25.53,28.82-6.5.08-10.35-3.08-11.42-9.41-2.13-12.64,10-29.4,22.63-31.5C707.92,100.4,713.31,104.94,713.26,114Z"/><path class="cls-1" d="M736.18,134.94V7.82h24.33l75,91.53h-11.8V7.82h29V134.94H828.43l-75-91.52h11.8v91.52ZM929.4,136.4q-16.71,0-29.24-6.54a47.62,47.62,0,0,1-26.33-43.77,50.8,50.8,0,0,1,6.63-26A46.63,46.63,0,0,1,899,42.24a55.28,55.28,0,0,1,26.79-6.45A53.89,53.89,0,0,1,951.64,42,46.28,46.28,0,0,1,969.89,59.4q6.72,11.26,6.72,27.06,0,1.64-.18,3.72c-.12,1.39-.24,2.7-.36,3.9H896.71V77.56h64.47l-11.08,4.9a25.81,25.81,0,0,0-2.91-13.25,22.52,22.52,0,0,0-8.53-8.81A24.75,24.75,0,0,0,926,57.22a25.28,25.28,0,0,0-12.81,3.18,22.18,22.18,0,0,0-8.62,8.9,28,28,0,0,0-3.09,13.53v4.35a26.84,26.84,0,0,0,3.63,14.17,24,24,0,0,0,10,9.17,33.78,33.78,0,0,0,15.26,3.18,36.13,36.13,0,0,0,13.53-2.37,33.33,33.33,0,0,0,10.8-7.08l15.07,16.35a43.92,43.92,0,0,1-16.89,11.71A62.56,62.56,0,0,1,929.4,136.4Zm112.41,0a56.85,56.85,0,0,1-27.52-6.54,48.31,48.31,0,0,1-25.87-43.77A49.19,49.19,0,0,1,995.32,60a48.47,48.47,0,0,1,19-17.79,57.49,57.49,0,0,1,27.52-6.45q15.62,0,27.78,6.45A48.34,48.34,0,0,1,1088.66,60a49.19,49.19,0,0,1,6.9,26.06q0,14.72-6.9,26a49.16,49.16,0,0,1-19.07,17.8Q1057.43,136.4,1041.81,136.4Zm0-23.25a25.27,25.27,0,0,0,12.8-3.18,23.24,23.24,0,0,0,8.9-9.35,29.93,29.93,0,0,0,3.36-14.53,29.25,29.25,0,0,0-3.36-14.52,23.53,23.53,0,0,0-8.9-9.17A24.91,24.91,0,0,0,1042,59.22a25.38,25.38,0,0,0-12.71,3.18,23.27,23.27,0,0,0-9,9.17,29.14,29.14,0,0,0-3.36,14.52,29.82,29.82,0,0,0,3.36,14.53,23,23,0,0,0,9,9.35A25,25,0,0,0,1041.81,113.15ZM547.1,337a104.8,104.8,0,0,1-29.33-4.08q-14.07-4.1-22.61-10.63l10-22.15a69.76,69.76,0,0,0,19.25,9.53,71.69,71.69,0,0,0,22.7,3.73,45,45,0,0,0,14.08-1.82,17.51,17.51,0,0,0,7.89-4.81,10.46,10.46,0,0,0,2.55-7,9.61,9.61,0,0,0-4-8.09,32.82,32.82,0,0,0-10.62-4.9q-6.63-1.9-14.44-3.63T526.85,279a62.76,62.76,0,0,1-14.52-6.54,30.7,30.7,0,0,1-10.54-10.71q-3.9-6.63-3.9-16.61a35.82,35.82,0,0,1,5.81-19.89q5.81-9,17.71-14.35t29.87-5.35a98.44,98.44,0,0,1,23.7,2.9,70,70,0,0,1,20.43,8.36l-9.26,22.15a74,74,0,0,0-17.62-7.35,66.69,66.69,0,0,0-17.43-2.46q-8.72,0-14,1.91a16.17,16.17,0,0,0-7.71,5.18,11.79,11.79,0,0,0-2.46,7.26,9.83,9.83,0,0,0,4,8.17,29.24,29.24,0,0,0,10.53,4.81Q548,258.19,556,259.9t15.8,4.27a71,71,0,0,1,14.35,6.45,31.1,31.1,0,0,1,10.62,10.53q4.08,6.63,4.08,16.44A34.77,34.77,0,0,1,595,317.2q-5.9,8.9-17.88,14.35T547.1,337ZM678.39,235.66a45.62,45.62,0,0,1,20.8,4.63,33.59,33.59,0,0,1,14.43,14.17q5.26,9.53,5.27,24.42v55.93H690.56V283.24q0-11.81-5.17-17.43t-14.62-5.63a25,25,0,0,0-12.08,2.9,20.3,20.3,0,0,0-8.35,8.54q-3,5.63-3,14.89v48.3H619V200.07h28.33v64.1L641,256a36.08,36.08,0,0,1,15.07-15.07A46.44,46.44,0,0,1,678.39,235.66Zm80.27-12.17q-8,0-12.89-4.54a15.35,15.35,0,0,1,0-22.51q4.9-4.55,12.89-4.54,7.8,0,12.8,4.26a13.81,13.81,0,0,1,5,11,15.41,15.41,0,0,1-4.91,11.71Q766.65,223.49,758.66,223.49ZM744.5,334.81v-97.7h28.32v97.7Zm43-73.73V239.29h67.74v21.79Zm15.07,73.73V234.94q0-16.71,9.81-26.52t28-9.8a55,55,0,0,1,11.8,1.27A30.45,30.45,0,0,1,862,203.7l-7.45,20.7a19.42,19.42,0,0,0-5.26-2.54,20.8,20.8,0,0,0-6.18-.91q-6.18,0-9.53,3.45t-3.36,10.9v9.08l.91,12v78.45Zm55.21-73.73V239.29h67.74v21.79Zm51.57,75.19q-17.25,0-26.87-8.81t-9.63-26.24V215.5h28.51v85.17q0,6.18,3.18,9.63a11.15,11.15,0,0,0,8.63,3.45,18.5,18.5,0,0,0,11.62-3.63l7.44,20A28.85,28.85,0,0,1,922,334.72,51,51,0,0,1,909.38,336.27Z"/></g></g></svg>